# xmcd
#
# Track frame offsets: 
#        150
#        17144
#        37032
#        61471
#        87274
#        114845
#        137939
#        159848
#        182604
#        196922
#        212704
#        228121
#        244755
#        261812
#        284521
#        309814
#        333305
#
# Disc length: 4696 seconds
#
# Revision: 1
# Processed by: cddbd v1.5.2PL0 Copyright (c) Steve Scherf et al.
# Submitted via: ExactAudioCopyFreeDBPlugin 1.0
#
DISCID=e4125611
DTITLE=Smokey Wilson - Round Like An Apple - The Big Town Recordings 1
DTITLE=977-1978
DYEAR=2006
DGENRE=Blues
TTITLE0=I Want To Do It To You
TTITLE1=I'm Gonna Put You Down
TTITLE2=I Wish I Was Single
TTITLE3=Low Deuce (Deuce and A Quarter)
TTITLE4=You Shattered My Dreams
TTITLE5=Goin' Away Baby (Round Like An Apple)
TTITLE6=Goin' To Mississippi
TTITLE7=I'm Gonna Leave You Baby
TTITLE8=Christmas
TTITLE9=How Many More Years
TTITLE10=Night Time Is The Right Time
TTITLE11=Blues For Big Town
TTITLE12=Annie Lee
TTITLE13=Straighten Up Baby
TTITLE14=I'm No Fool, I Know The Rule
TTITLE15=I Wonder Why Strange Things Are Happening
TTITLE16=Happy Home
EXTD=
EXTT0=
EXTT1=
EXTT2=
EXTT3=
EXTT4=
EXTT5=
EXTT6=
EXTT7=
EXTT8=
EXTT9=
EXTT10=
EXTT11=
EXTT12=
EXTT13=
EXTT14=
EXTT15=
EXTT16=
PLAYORDER=
